<?xml version="1.0" encoding="utf-8"?>
<!-- Generator: Adobe Illustrator 22.0.1, SVG Export Plug-In . SVG Version: 6.00 Build 0)  -->
<svg version="1.1" id="Layer_1" xmlns="http://www.w3.org/2000/svg" xmlns:xlink="http://www.w3.org/1999/xlink" x="0px" y="0px"
	 viewBox="0 0 657 650" style="enable-background:new 0 0 657 650;" xml:space="preserve">
<style type="text/css">
	.st0{fill:#48C4E5;stroke:#FFFFFF;stroke-width:6;stroke-miterlimit:10;}
	.st1{fill:#EACFBA;}
	.st2{fill:#23668F;}
	.st3{fill:#E0E1E0;}
	.st4{fill:#348BB8;}
	.st5{fill:#FDC20F;}
	.st6{fill:#E8C2A7;}
	.st7{fill:#FFD28D;}
	.st8{fill:#E8BC9E;}
	.st9{fill:#472713;}
	.st10{fill:#FFFFFF;}
	.st11{fill:#FBAA19;}
	.st12{fill:#F7911E;}
	.st13{fill:none;stroke:#472713;stroke-width:8.5148;stroke-miterlimit:10;}
</style>
<g>
	<circle class="st0" cx="328.5" cy="325" r="315.5"/>
	<g>
		<path d="M227.1,222.5c0,0,3.1,44.9-4.8,46.6c-8,1.7,29.6,12.2,29.6,12.2L239.7,231L227.1,222.5z"/>
		<polygon points="409.5,272.4 417.3,231 431,228.5 434.6,264.3 		"/>
		<polygon class="st1" points="304.8,562.3 268.3,562.3 268.3,489.7 311.9,489.7 		"/>
		<polygon class="st2" points="317.5,539.2 262.2,539.2 262.2,437.2 326,437.2 		"/>
		<polygon class="st2" points="268.3,562.3 304.8,562.3 304.8,584.8 234.4,584.8 234.4,576.1 		"/>
		<polygon class="st1" points="352.2,562.3 388.7,562.3 388.7,489.7 345.1,489.7 		"/>
		<polygon class="st2" points="339.5,539.2 394.8,539.2 394.8,437.2 331,437.2 		"/>
		<polygon class="st2" points="388.7,562.3 352.2,562.3 352.2,584.8 422.6,584.8 422.6,576.1 		"/>
		<path class="st1" d="M247.5,438.7v-96.1c0,0-45.2-10.8-47.9-2.5c-14.1,43.5-1.7,98.5-1.7,98.5H247.5z"/>
		<path class="st1" d="M409.5,438.7v-96.1c0,0,45.2-10.8,47.9-2.5c14.1,43.5,1.7,98.5,1.7,98.5H409.5z"/>
		<path class="st3" d="M407.4,287.7c-16.5-4.1-63.1,4.6-78.2,7.6c-15.1-3-61.7-11.7-78.2-7.6c-21.5,5.3-45.6,26.4-56.1,54.5
			c20.1,8.4,52.7,12.6,52.7,12.6v83.7h79.4h4.6h78.7v-83.7c0,0,31.9-5.4,52-13.8C451.5,312.2,428.9,293.1,407.4,287.7z"/>
		<path class="st2" d="M414.4,384.9c-39.7,11-131,11-171.1,0c0,7.6,0,42.9,0,51.7c-0.1,0.7-0.2,1.4-0.2,2.1
			c0,11.5,13.8,20.8,30.8,20.8h109.5c17,0,30.8-9.3,30.8-20.8c0,0,0,0,0-0.1h0.1C414.4,438.6,414.4,402,414.4,384.9z"/>
		<path class="st4" d="M370.1,401c0,1.1,1.1,1.9,2.4,1.9l18.2-1.9c1.3,0,2.4-0.9,2.4-1.9v-107c0-1.1-1.1-1.9-2.4-1.9h-18.2
			c-1.3,0-2.4,0.9-2.4,1.9V401z"/>
		<path class="st5" d="M376.4,395.9c0,2,2.3,3.7,5.2,3.7c2.9,0,5.2-1.7,5.2-3.7c0-2.1-2.3-3.7-5.2-3.7
			C378.8,392.2,376.4,393.9,376.4,395.9z"/>
		<path class="st4" d="M286.9,401c0,1.1-1.1,1.9-2.4,1.9l-18.2-1.9c-1.3,0-2.4-0.9-2.4-1.9v-107c0-1.1,1.1-1.9,2.4-1.9h18.2
			c1.3,0,2.4,0.9,2.4,1.9V401z"/>
		<path class="st5" d="M280.6,395.9c0,2-2.3,3.7-5.2,3.7c-2.9,0-5.2-1.7-5.2-3.7c0-2.1,2.3-3.7,5.2-3.7
			C278.2,392.2,280.6,393.9,280.6,395.9z"/>
		<path class="st6" d="M361.2,303.2c0,12.1-14.7,21.8-32.7,21.8c-18.1,0-32.7-9.8-32.7-21.8s14.7-21.8,32.7-21.8
			C346.6,281.3,361.2,291.1,361.2,303.2z"/>
		<path class="st7" d="M332.9,164.4c-0.5-1.6-3.6-1.3-3.9,0.8c-0.3,2.6-2.5,5.5-3.3,8.1c-0.9,3.3-1.6,6.6-2.9,9.8
			c-0.8,2.1,2.7,3.6,3.6,1.5c1.3-2.9,2.5-5.8,3.6-8.8c1.2-3.1,3.1-5.9,4.1-9.1C334.6,165.5,333.8,164.7,332.9,164.4z"/>
		<g>
			<path class="st8" d="M417.3,186c-8.9,5.8-10.1,42.2,0,45c9.3,2.6,26-5.7,25.2-26.7C442.3,196.5,437.8,174.5,417.3,186z"/>
			<path class="st8" d="M239.7,186c8.9,5.8,10.1,42.2,0,45c-9.3,2.6-26-5.7-25.2-26.7C214.7,196.5,219.2,174.5,239.7,186z"/>
		</g>
		<path class="st1" d="M419.2,237.1c0-82.4-39.6-104.4-39.6-104.4s-37.3-5.6-51.1,3.1c-13.8-8.8-51.1-3.1-51.1-3.1
			s-39.6,21.9-39.6,104.4c0,53.7,38.7,67.5,87.3,68.7c0,0,0,0,0,0.1c1.1,0,2.3,0,3.4,0c1.1,0,2.3,0,3.4,0c0,0,0-0.1,0-0.1
			C380.5,304.6,419.2,290.8,419.2,237.1z"/>
		<path class="st8" d="M336,217.6c0,4.1-3.4,7.5-7.5,7.5l0,0c-4.1,0-7.5-3.4-7.5-7.5v-10.3c0-4.1,3.4-7.5,7.5-7.5l0,0
			c4.1,0,7.5,3.4,7.5,7.5V217.6z"/>
		<path d="M301.7,194.7c0,6-4.8,10.8-10.8,10.8c-6,0-10.8-4.8-10.8-10.8c0-6,4.8-10.8,10.8-10.8
			C296.9,183.9,301.7,188.8,301.7,194.7z"/>
		<path d="M355.4,194.7c0,6,4.8,10.8,10.8,10.8c6,0,10.8-4.8,10.8-10.8c0-6-4.8-10.8-10.8-10.8C360.2,183.9,355.4,188.8,355.4,194.7
			z"/>
		<path class="st9" d="M302.7,226.6c0,30.7,51.6,30.2,51.6,0C335.9,226.6,320.7,226.6,302.7,226.6z"/>
		<path class="st10" d="M307.8,231.9c0,6.4,9.4,5.9,9.4,0C314.7,231.9,312.6,231.9,307.8,231.9z"/>
		<g>
			<path class="st10" d="M315.6,231.9c0,8.5,12.5,7.9,12.5,0C324.8,231.9,322,231.9,315.6,231.9z"/>
			<path class="st10" d="M328.7,231.9c0,8.5,12.5,7.9,12.5,0C337.9,231.9,335.1,231.9,328.7,231.9z"/>
		</g>
		<path class="st10" d="M338.7,231.9c0,6.4,9.4,5.9,9.4,0C345.6,231.9,343.4,231.9,338.7,231.9z"/>
		<path d="M255.1,158c-4.2,13.1-13.6,41.4-15.2,51.8c-4.6-2.9-4.5-22.9-4.5-22.9l-6.5-1.8c0,0,3.7-16.9,6.9-22.5
			C240.9,162.8,248.1,158,255.1,158z"/>
		<path d="M402.3,158c4.2,13.1,13.2,41.4,14.8,51.8c4.6-2.9,4.5-22.9,4.5-22.9l6.5-1.8c0,0-3.7-16.9-6.9-22.5
			C416.1,162.8,409.3,158,402.3,158z"/>
		<path d="M326.1,218.4c-11.1-0.6-18.3,1.2-23.2,3.6c-6,3-9.9,9-10.5,15.8c0,0,0,0.1,0,0.1c-0.2,2.6,0.3,3.1,0.3,6.1
			c0.2,5.6,2.2,11.3,5.6,16c1.7,2.3,3.7,4.5,6,6.2c2.3,1.8,4.9,3.3,7.6,4.3c1.3,0.6,2.8,0.9,4.2,1.3c1.4,0.2,2.9,0.6,4.4,0.6
			l2.2,0.1l1.9,0l3.8,0h5.8c0.7,0,1.4-0.1,2.2-0.1c1.5,0,2.9-0.4,4.4-0.6c1.4-0.4,2.9-0.7,4.2-1.3c2.8-1,5.4-2.5,7.7-4.2
			c2.4-1.7,4.4-3.9,6.1-6.2c3.4-4.7,5.4-10.4,5.6-16.1c0.1-3-0.2-5.3-0.4-8c0-0.3,0-0.5,0-0.7c-0.1-3.5-1.8-6.8-4.8-8.7
			c-5.5-3.5-15.3-8.2-28.4-8.2c-0.9,0-1.7,0.5-2.2,1.3c-0.5-0.8-1.3-1.3-2.2-1.3 M359,237.5c-0.2,2.1-0.3,4.2-0.5,5.9
			c-0.7,4.5-2.6,8.8-5.5,12.1c-1.4,1.7-3,3.3-4.9,4.5c-1.8,1.2-3.7,2.3-5.8,2.9c-1,0.4-2.1,0.6-3.2,0.9c-1.1,0.1-2.1,0.4-3.2,0.4
			l-1.7,0.1h-5.8l-3.8,0l-1.9,0l-1.7-0.1c-1.1,0-2.2-0.2-3.3-0.3c-1.1-0.3-2.1-0.4-3.2-0.9c-2.1-0.6-4.1-1.7-5.9-2.9
			c-1.9-1.2-3.5-2.8-4.9-4.5c-2.9-3.4-4.7-7.7-5.5-12.2c-0.3-1.9-0.4-4.1-0.5-6.4c1.1-3,2.5-4.1,5.8-6.2c7.8,0.3,17.8,0.2,22.3-1.8
			c1.2-0.5,2.1-1.4,2.6-2.4c0.6,1,1.4,1.9,2.6,2.4c4.3,2,13.9,2.1,21.7,1.9l-0.1,0C356.3,233.3,357.8,234.2,359,237.5L359,237.5z"/>
		<path class="st5" d="M431,152.2c-5.3-51.9-49.1-92.5-102.5-92.5c-53.3,0-97.2,40.5-102.5,92.5H431z"/>
		<path class="st11" d="M343.4,150.2c0,1.1-0.6,2-1.4,2h-26.9c-0.8,0-1.4-0.9-1.4-2V59.3c0-1.1,0.6-2,1.4-2h26.9
			c0.8,0,1.4,0.9,1.4,2V150.2z"/>
		<path class="st12" d="M433.8,162c-0.7,2-5,3.2-9.8,2.7c-63.1-6.7-127.7-6.7-190.9,0c-4.8,0.5-9.2-0.7-9.8-2.7
			c-0.8-2.6-1.6-5.1-2.4-7.7c-0.7-2,2.9-4.2,7.9-4.7c66-7,133.5-7,199.6,0c5,0.5,8.5,2.7,7.9,4.7C435.4,156.8,434.6,159.4,433.8,162
			z"/>
		<g>
			<path class="st1" d="M263.9,443.6c3.6,2.8,3.4,7.2-0.6,9.8l0,0c-4,2.6-10.1,2.4-13.8-0.4l-15.7-12.3c-3.6-2.8-3.4-7.2,0.6-9.8
				l0,0c4-2.6,10.1-2.4,13.8,0.4L263.9,443.6z"/>
			<path class="st1" d="M256.5,444.1c0,12.3-14.1,22.4-31.5,22.4c-17.4,0-31.5-10-31.5-22.4c0-12.3,14.1-22.4,31.5-22.4
				C242.4,421.8,256.5,431.8,256.5,444.1z"/>
			<path class="st1" d="M231.2,473.3c0,2.4-2.8,4.4-6.2,4.4l0,0c-3.4,0-6.2-2-6.2-4.4v-14.3c0-2.4,2.8-4.4,6.2-4.4l0,0
				c3.4,0,6.2,2,6.2,4.4V473.3z"/>
			<g>
				<path class="st1" d="M213.5,466.5c0,2.4-2.8,4.4-6.1,4.4l0,0c-3.4,0-6.2-2-6.2-4.4v-14.3c0-2.4,2.8-4.4,6.2-4.4l0,0
					c3.4,0,6.1,2,6.1,4.4V466.5z"/>
				<path class="st1" d="M248.8,471.3c0,2.4-2.8,4.4-6.2,4.4l0,0c-3.4,0-6.1-2-6.1-4.4v-14.3c0-2.4,2.8-4.4,6.1-4.4l0,0
					c3.4,0,6.2,2,6.2,4.4V471.3z"/>
			</g>
		</g>
		<g>
			<path class="st1" d="M393.2,443.6c-3.6,2.8-3.4,7.2,0.6,9.8l0,0c4,2.6,10.1,2.4,13.8-0.4l15.7-12.3c3.6-2.8,3.4-7.2-0.6-9.8l0,0
				c-4-2.6-10.1-2.4-13.8,0.4L393.2,443.6z"/>
			<path class="st1" d="M400.6,444.1c0,12.3,14.1,22.4,31.5,22.4s31.5-10,31.5-22.4c0-12.3-14.1-22.4-31.5-22.4
				S400.6,431.8,400.6,444.1z"/>
			<path class="st1" d="M425.9,473.3c0,2.4,2.8,4.4,6.1,4.4l0,0c3.4,0,6.2-2,6.2-4.4v-14.3c0-2.4-2.8-4.4-6.2-4.4l0,0
				c-3.4,0-6.1,2-6.1,4.4V473.3z"/>
			<g>
				<path class="st1" d="M443.5,466.5c0,2.4,2.8,4.4,6.1,4.4l0,0c3.4,0,6.2-2,6.2-4.4v-14.3c0-2.4-2.8-4.4-6.2-4.4l0,0
					c-3.4,0-6.1,2-6.1,4.4V466.5z"/>
				<path class="st1" d="M408.2,471.3c0,2.4,2.8,4.4,6.2,4.4l0,0c3.4,0,6.1-2,6.1-4.4v-14.3c0-2.4-2.8-4.4-6.1-4.4l0,0
					c-3.4,0-6.2,2-6.2,4.4V471.3z"/>
			</g>
		</g>
		<path class="st13" d="M363.2,227.5"/>
		<path class="st13" d="M297.1,227.5"/>
		<circle class="st10" cx="366.2" cy="194.7" r="3.4"/>
		<circle class="st10" cx="290.9" cy="194.7" r="3.4"/>
		<g>
			<path d="M382.7,169.5c-9.3-5.2-22.5-4.7-30.7,2.4c-2.7,2.3-2.4,6.9,0,9.3c2.6,2.6,6.6,2.3,9.3,0c-0.9,0.8,0.5-0.4,0.8-0.5
				c-0.1,0,1.8-0.8,1.1-0.5c1.5-0.6,2.9-0.9,4.4-0.9c3.1-0.2,6.2,0.3,8.5,1.6C383.4,184.9,390,173.6,382.7,169.5L382.7,169.5z"/>
			<path d="M274.3,169.5c9.3-5.2,22.5-4.7,30.7,2.4c2.7,2.3,2.4,6.9,0,9.3c-2.6,2.6-6.6,2.3-9.3,0c0.9,0.8-0.5-0.4-0.8-0.5
				c0.1,0-1.8-0.8-1.1-0.5c-1.5-0.6-2.9-0.9-4.4-0.9c-3.1-0.2-6.2,0.3-8.5,1.6C273.6,184.9,267,173.6,274.3,169.5L274.3,169.5z"/>
		</g>
	</g>
</g>
</svg>
