<?xml version="1.0" encoding="utf-8"?>
<!-- Generator: Adobe Illustrator 22.0.1, SVG Export Plug-In . SVG Version: 6.00 Build 0)  -->
<svg version="1.1" id="Layer_1" xmlns="http://www.w3.org/2000/svg" xmlns:xlink="http://www.w3.org/1999/xlink" x="0px" y="0px"
	 viewBox="0 0 108 115" style="enable-background:new 0 0 108 115;" xml:space="preserve">
<style type="text/css">
	.st0{fill:#48C4E5;}
</style>
<path class="st0" d="M105.5,41.1v2.3c-1.1,1.3-2.3,2.5-3.4,3.8c-0.5,0.6-1,1.3-1.5,1.9c-1.7,1.9-3.5,3.6-4.9,5.6
	c-1.7,2.4-4,4.3-5.5,6.7h-1.8c-3.4-2.7-6.8-5.5-10.2-8.3c1.1-2.3,0.9-4.5,0-6.9c-1.2-1-2.1-2.8-4-3.3c-3.6-0.8-6.4,0.6-8.7,3.4
	L62.7,50c-1.1,1.6-2.1,3-3.1,4.4c-2.7,3.6-5.5,7.1-8,10.8c-1.6,2.2-3.5,4.2-5.2,6.4c-2.2,2.7-4.5,5.4-6.5,8.3
	c-1,1.4-2.1,2.7-3.1,4.1c-1.9,2.4-3.7,4.9-5.6,7.3c-1.7,2.3-3.6,4.3-5.4,6.6c-1.4,1.8-2.6,3.8-4.1,5.6c-1.7,2.1-3.5,4.2-6.2,5.3
	c-2.6,1.1-5.3,1.3-7.9,0.2c-2.3-0.9-3.8-2.8-4.6-5.2c-1.3-4.4-0.4-8.1,2.8-11.4c2.8-2.9,5.8-5.8,8.4-9c1.8-2.2,3.9-4,5.6-6.2
	c1.8-2.3,4.1-4.1,5.8-6.4c1.6-2.2,3.8-3.8,5.4-6c1.9-2.5,4.5-4.5,6.4-7c2.5-3.2,5.7-5.7,8.2-8.8c2.1-2.6,4.5-4.9,7-7.5l2.4-4.2
	c1.2-2.4,1.9-4.7,1.8-7.1c-0.1-1.8,0-3.6-0.5-5.4c-0.6-2-1.4-3.8-2.7-5.4c-2.4-3-5.6-4.7-9.2-5.8c-2.3-0.7-4.6-1.2-7-0.8
	c-0.7-0.7-1.8-1.2-1.5-2.5c2.2-1.9,5-3.1,7.7-3.8c3-0.9,6-1.1,9.2-1.1c3.2,0,6.1,1,9.1,2l22.8,17.3c1,0.5,1.5,1.6,1.5,2.4
	c-0.1,1.9,0.6,3.6,0.8,5.4c0.4,0.4,0.8,0.8,1.2,1.2l2.7,0.4c0.9-0.1,1.8-0.2,2.7-0.2c1,0,2.1,0,2.8,0
	C99.5,36.2,102.5,38.7,105.5,41.1z"/>
<g>
	<path class="st0" d="M420.6,12.7c2.1,0.3,3.6,1.7,5.3,2.8c2.5,1.6,5,3.2,7.7,4.9c0.3,1.1-0.2,2.1-0.9,3c-1.4,2.2-2.7,4.3-4.2,6.4
		c-0.6,0.8-1.1,1.8-2.5,1.5C425.9,31.4,414.8,21.1,420.6,12.7z"/>
	<path class="st0" d="M508.8,91.8v6.4c-0.3,0.6-0.6,1.1-0.8,1.6c-0.8,2.3-2.5,3.8-4.2,5.3c-0.7,0.7-1.9,1-2.9,1.2
		c-1.6,0.4-3.1,1.3-4.7,0.8c-1.7-0.5-3.6-0.4-5.3-1.6c-1.9-1.3-3.4-2.8-4.7-4.5c-2.3-3.2-4.7-6.4-7-9.6c-1.9-2.6-3.7-5.3-5.5-7.9
		c-0.5-0.7-1.1-1.5-1.7-2.3l-15.7-22.5l2-2.2c0.6-0.6,1.1-1.2,1.7-1.8l-1.7,1.8c-0.7,0.7-1.4,1.4-2,2.2c-1.8-3-8.2-8.8-8.2-8.8
		c-1.3-0.8-2.4-2-3.6-2.9c-2.6-1.8-5.6-2.9-8.6-3.8c-1.8-0.5-3.8-0.6-5.7-0.6c-2.3,0.1-3.8-0.7-4.6-3c4.9-7.3,9.8-14.8,14.8-22.2
		c-4.7-3.4-9.9-6.2-14.1-10c-0.4-1.5,0.8-1.9,1.2-2.4c1-0.4,1.6-0.7,2.3-0.8c3.1-0.8,6.3-1.6,9.4-1.1c3.5,0.6,7,0.8,10.2,2.7
		c2.8,1.7,5.2,3.8,6.9,6.7c1.2,2.1,2.1,4.2,2.7,6.5c0.3,1.5,0.3,3.2,0,4.7c-0.5,2.4-0.4,4,0.1,6.7c0.8,5.1,3.6,9,7,12.6
		c0.7,0.8,1.3,1.7,2.1,2.7l-4.2,4.6c0.7-0.6,1.3-1.2,1.9-1.9c0.8-0.9,1.6-1.9,2.3-2.8l21.1,22.8c1.3,1.7,2.8,3.2,4.3,4.7
		c2.9,3.1,5.9,6,8.5,9.2c1.4,1.6,2.9,3.1,4.2,4.7c0.8,1,1.4,2.2,2.1,3.4C508.4,91.1,508.6,91.4,508.8,91.8z"/>
	<path class="st0" d="M458.4,56.6l1.7-1.8C459.5,55.4,458.9,56,458.4,56.6z"/>
	<path class="st0" d="M468.1,45.9c-0.7,0.9-1.5,1.9-2.3,2.8c-0.6,0.6-1.3,1.3-1.9,1.9L468.1,45.9z"/>
	<path class="st0" d="M458.4,56.6l1.7-1.8C459.5,55.4,458.9,56,458.4,56.6z"/>
	<path class="st0" d="M468.1,45.9c-0.7,0.9-1.5,1.9-2.3,2.8c-0.6,0.6-1.3,1.3-1.9,1.9L468.1,45.9z"/>
</g>
</svg>
