<?xml version="1.0" encoding="utf-8"?>
<!-- Generator: Adobe Illustrator 22.0.1, SVG Export Plug-In . SVG Version: 6.00 Build 0)  -->
<svg version="1.1" id="Layer_1" xmlns="http://www.w3.org/2000/svg" xmlns:xlink="http://www.w3.org/1999/xlink" x="0px" y="0px"
	 viewBox="0 0 108 115" style="enable-background:new 0 0 108 115;" xml:space="preserve">
<style type="text/css">
	.st0{fill:#48C4E5;}
</style>
<g>
	<path class="st0" d="M10.7,15.1c2.1,0.3,3.6,1.7,5.3,2.8c2.5,1.6,5,3.2,7.7,4.9c0.3,1.1-0.2,2.1-0.9,3c-1.4,2.2-2.7,4.3-4.2,6.4
		c-0.6,0.8-1.1,1.8-2.5,1.5C16.1,33.7,5,23.4,10.7,15.1z"/>
	<path class="st0" d="M98.9,94.2v6.4c-0.3,0.6-0.6,1.1-0.8,1.6c-0.8,2.3-2.5,3.8-4.2,5.3c-0.7,0.7-1.9,1-2.9,1.2
		c-1.6,0.4-3.1,1.3-4.7,0.8c-1.7-0.5-3.6-0.4-5.3-1.6c-1.9-1.3-3.4-2.8-4.7-4.5c-2.3-3.2-4.7-6.4-7-9.6c-1.9-2.6-3.7-5.3-5.5-7.9
		c-0.5-0.7-1.1-1.5-1.7-2.3L46.5,61.1l2-2.2c0.6-0.6,1.1-1.2,1.7-1.8l-1.7,1.8c-0.7,0.7-1.4,1.4-2,2.2c-1.8-3-8.2-8.8-8.2-8.8
		c-1.3-0.8-2.4-2-3.6-2.9C32,47.7,29,46.6,26,45.7c-1.8-0.5-3.8-0.6-5.7-0.6c-2.3,0.1-3.8-0.7-4.6-3c4.9-7.3,9.8-14.8,14.8-22.2
		c-4.7-3.4-9.9-6.2-14.1-10c-0.4-1.5,0.8-1.9,1.2-2.4c1-0.4,1.6-0.7,2.3-0.8c3.1-0.8,6.3-1.6,9.4-1.1c3.5,0.6,7,0.8,10.2,2.7
		c2.8,1.7,5.2,3.8,6.9,6.7c1.2,2.1,2.1,4.2,2.7,6.5c0.3,1.5,0.3,3.2,0,4.7c-0.5,2.4-0.4,4,0.1,6.7c0.8,5.1,3.6,9,7,12.6
		c0.7,0.8,1.3,1.7,2.1,2.7L54,52.9c0.7-0.6,1.3-1.2,1.9-1.9c0.8-0.9,1.6-1.9,2.3-2.8l21.1,22.8c1.3,1.7,2.8,3.2,4.3,4.7
		c2.9,3.1,5.9,6,8.5,9.2c1.4,1.6,2.9,3.1,4.2,4.7c0.8,1,1.4,2.2,2.1,3.4C98.6,93.4,98.7,93.7,98.9,94.2z"/>
	<path class="st0" d="M48.5,58.9l1.7-1.8C49.6,57.7,49.1,58.3,48.5,58.9z"/>
	<path class="st0" d="M58.2,48.3c-0.7,0.9-1.5,1.9-2.3,2.8c-0.6,0.6-1.3,1.3-1.9,1.9L58.2,48.3z"/>
	<path class="st0" d="M48.5,58.9l1.7-1.8C49.6,57.7,49.1,58.3,48.5,58.9z"/>
	<path class="st0" d="M58.2,48.3c-0.7,0.9-1.5,1.9-2.3,2.8c-0.6,0.6-1.3,1.3-1.9,1.9L58.2,48.3z"/>
</g>
</svg>
